<?xml version="1.0" encoding="UTF-8" standalone="no"?>
<!-- Created with Inkscape (http://www.inkscape.org/) -->
<svg
   xmlns:dc="http://purl.org/dc/elements/1.1/"
   xmlns:cc="http://web.resource.org/cc/"
   xmlns:rdf="http://www.w3.org/1999/02/22-rdf-syntax-ns#"
   xmlns:svg="http://www.w3.org/2000/svg"
   xmlns="http://www.w3.org/2000/svg"
   xmlns:sodipodi="http://sodipodi.sourceforge.net/DTD/sodipodi-0.dtd"
   xmlns:inkscape="http://www.inkscape.org/namespaces/inkscape"
   width="744.09448819"
   height="1052.3622047"
   id="svg2"
   sodipodi:version="0.32"
   inkscape:version="0.45.1"
   sodipodi:docbase="/home/rouslan/Software/gvocab"
   sodipodi:docname="gvocab.svg"
   inkscape:output_extension="org.inkscape.output.svg.inkscape">
  <defs
     id="defs4" />
  <sodipodi:namedview
     id="base"
     pagecolor="#ffffff"
     bordercolor="#666666"
     borderopacity="1.0"
     gridtolerance="10000"
     guidetolerance="10"
     objecttolerance="10"
     inkscape:pageopacity="0.0"
     inkscape:pageshadow="2"
     inkscape:zoom="0.98994949"
     inkscape:cx="202.72332"
     inkscape:cy="690.67984"
     inkscape:document-units="px"
     inkscape:current-layer="layer1"
     inkscape:window-width="1191"
     inkscape:window-height="946"
     inkscape:window-x="10"
     inkscape:window-y="100"
     showguides="true"
     inkscape:guide-bbox="true" />
  <metadata
     id="metadata7">
    <rdf:RDF>
      <cc:Work
         rdf:about="">
        <dc:format>image/svg+xml</dc:format>
        <dc:type
           rdf:resource="http://purl.org/dc/dcmitype/StillImage" />
      </cc:Work>
    </rdf:RDF>
  </metadata>
  <g
     inkscape:label="Layer 1"
     inkscape:groupmode="layer"
     id="layer1">
    <rect
       style="fill:#c3000f;fill-opacity:1"
       id="rect4145"
       width="137.3434"
       height="144.72734"
       x="136.59399"
       y="358.65005"
       ry="3.3924608"
       transform="matrix(0.9500315,0.312154,-5.737294e-2,0.9983528,0,0)" />
    <rect
       style="fill:#c3000f;fill-opacity:1"
       id="rect5116"
       width="136.03615"
       height="136.6718"
       x="255.82988"
       y="535.70844"
       ry="2.2853932"
       transform="matrix(0.944545,-0.3283819,-2.5440416e-2,0.9996763,0,0)" />
    <rect
       style="fill:#ffffff;fill-opacity:1;stroke:#000000;stroke-width:1.16455173;stroke-opacity:1"
       id="rect5118"
       width="120.10164"
       height="126.14713"
       x="145.12117"
       y="370.75574"
       transform="matrix(0.9501189,0.311888,-5.4631689e-2,0.9985066,0,0)" />
    <rect
       style="fill:#ffffff;fill-opacity:1;stroke:#000000;stroke-width:1.17624199;stroke-opacity:1"
       id="rect6089"
       width="122.63689"
       height="126.03204"
       x="147.74261"
       y="337.42322"
       transform="matrix(0.9276121,0.373545,-5.4643195e-2,0.9985059,0,0)" />
    <text
       xml:space="preserve"
       style="font-size:168.46525574px;font-style:italic;font-variant:normal;font-weight:bold;font-stretch:normal;text-align:start;line-height:125%;writing-mode:lr-tb;text-anchor:start;fill:#000000;fill-opacity:1;stroke:none;stroke-width:1px;stroke-linecap:butt;stroke-linejoin:miter;stroke-opacity:1;font-family:URW Chancery L"
       x="286.94391"
       y="387.21588"
       id="text4123"
       sodipodi:linespacing="125%"
       transform="matrix(0.8779716,0.2603856,-0.2754148,1.0573075,0,0)"><tspan
         sodipodi:role="line"
         id="tspan4143"
         x="286.94391"
         y="387.21588">g</tspan></text>
    <rect
       style="fill:#ffffff;fill-opacity:1;stroke:#000000;stroke-width:1.19435847;stroke-opacity:1"
       id="rect6091"
       width="125.22406"
       height="127.25954"
       x="279.26071"
       y="549.8269"
       transform="matrix(0.9383768,-0.3456138,-5.4521581e-2,0.9985126,0,0)" />
    <rect
       style="fill:#ffffff;fill-opacity:1;stroke:#000000;stroke-width:1.22352195;stroke-opacity:1"
       id="rect6093"
       width="131.21632"
       height="127.45135"
       x="292.04041"
       y="566.78497"
       transform="matrix(0.8999869,-0.4359169,-5.4502786e-2,0.9985136,0,0)" />
    <text
       xml:space="preserve"
       style="font-size:212.15725708px;font-style:italic;font-variant:normal;font-weight:bold;font-stretch:normal;text-align:start;line-height:125%;writing-mode:lr-tb;text-anchor:start;fill:#000000;fill-opacity:1;stroke:none;stroke-width:1px;stroke-linecap:butt;stroke-linejoin:miter;stroke-opacity:1;font-family:URW Chancery L"
       x="134.90286"
       y="517.47595"
       id="text4137"
       sodipodi:linespacing="125%"
       transform="matrix(0.9114238,-0.1786567,0.2440723,1.0493415,0,0)"><tspan
         sodipodi:role="line"
         id="tspan4141"
         x="134.90286"
         y="517.47595">v</tspan></text>
    <path
       style="fill:none;fill-rule:evenodd;stroke:#7d7d7d;stroke-width:0.73692864;stroke-linecap:butt;stroke-linejoin:miter;stroke-miterlimit:4;stroke-dasharray:none;stroke-opacity:1"
       d="M 331.57835,527.10017 L 223.44674,572.32921"
       id="path8064"
       inkscape:transform-center-y="-6.9554403"
       inkscape:transform-center-x="4.3462169" />
    <path
       style="fill:none;fill-rule:evenodd;stroke:#7d7d7d;stroke-width:0.75;stroke-linecap:butt;stroke-linejoin:miter;stroke-miterlimit:4;stroke-dasharray:none;stroke-opacity:1"
       d="M 137.1304,540.09766 L 222.67105,570.03124"
       id="path7093" />
    <path
       style="fill:#ff0000;fill-opacity:1;stroke:#000000;stroke-width:1;stroke-opacity:1"
       id="path7091"
       d="M 245.2309,429.96115 C 242.47794,432.07226 240.2077,434.66579 238.06455,437.37405 C 235.247,441.0686 232.59599,444.87415 230.36976,448.96679 C 228.22173,453.13599 227.30263,457.7881 226.37856,462.38467 C 225.0295,471.11855 225.88317,479.97309 227.15314,488.75199 C 228.44147,496.2364 230.38475,503.61525 232.43685,510.94963 C 233.74395,515.46415 234.9358,520.00218 235.77914,524.61059 C 236.6095,528.9072 236.48353,533.22539 236.3575,537.53523 C 236.44464,543.07387 235.54492,548.46803 234.45133,553.82733 C 233.72053,557.65717 232.5618,561.34247 231.24334,564.9786 C 230.54643,566.89661 229.39284,568.54837 228.28918,570.22999 C 227.28962,571.60659 226.25774,572.95777 225.22177,574.30633 C 224.19304,575.58161 223.23474,576.91358 222.2487,578.22297 C 221.85075,578.78035 221.3726,579.27116 220.93517,579.7945 L 211.05073,583.17438 C 211.50658,582.65087 212.01781,582.19147 212.4098,581.61359 C 213.42367,580.32864 214.43928,579.04036 215.37005,577.68735 C 216.43496,576.37546 217.48596,575.04655 218.49791,573.68756 C 219.64276,572.05828 220.83464,570.45714 221.61302,568.59861 C 223.1061,565.02042 224.39123,561.36287 225.19029,557.52746 C 226.32185,552.23852 227.21793,546.90321 227.1265,541.42454 C 227.19777,537.19396 227.21896,532.94115 226.56348,528.72015 C 225.76194,524.12463 224.52306,519.61043 223.42058,515.06923 C 221.48226,507.63673 219.68486,500.15713 218.457,492.59672 C 217.13499,483.78901 216.18562,474.91145 217.16955,466.09559 C 217.90531,461.39224 218.79311,456.69076 220.92823,452.43841 C 223.03988,448.25611 225.76365,444.47225 228.50585,440.69776 C 230.55749,438.02051 232.64653,435.37019 235.26637,433.22114 L 245.2309,429.96115 z " />
  </g>
</svg>
